{"title":"The Way of The Panda/The Prodigy (2009) DVDRIP","uid":11691158,"size":814547273,"categoryP":"video","categoryS":"movies","magnet":"?xt=urn:btih:75decaf2c3579aaa925abb9762da98b44dcfe240&amp;dn=The+Way+of+The+Panda%2FThe+Prodigy+%282009%29+DVDRIP&amp;tr=udp%3A%2F%2Ftracker.openbittorrent.com%3A80&amp;tr=udp%3A%2F%2Fopen.demonii.com%3A1337&amp;tr=udp%3A%2F%2Ftracker.coppersurfer.tk%3A6969&amp;tr=udp%3A%2F%2Fexodus.desync.com%3A6969","seeders":0,"leechers":0,"uploader":"TempoFtron","files":1,"time":1423541016,"description":"TempoFtron presents\n\n============================================\n The Way of The Panda \n============================================\n\nSynopsis:\nAn animated action comedy that follows the quest of a young panda girl named KG, the Kung-Fu Girl. With the help of her brave yet zany Master Panda, KG must rescue the handsome Prince Po and restore justice to her beautiful kingdom. During her adventure, KG learns that there is no limit to what she can accomplish, if she believes in herself.\n\nScreenshots: &lt;a href=&quot;\nhttp://puu.sh/fIleB/cf5b6cf5bf.jpg&quot; rel=&quot;nofollow&quot; target=&quot;_NEW&quot;&gt;\nhttp://puu.sh/fIleB/cf5b6cf5bf.jpg&lt;/a&gt;\n\nVideo\nID                                       : 1\nFormat                                   : HEVC\nFormat/Info                              : High Efficiency Video Coding\nFormat profile                           : &lt;a class=&quot;__cf_email__&quot; href=&quot;/cdn-cgi/l/email-protection&quot; data-cfemail=&quot;3e735f57507e720d100e&quot;&gt;[email&amp;#160;protected]&lt;/a&gt;&lt;script cf-hash='f9e31' type=&quot;text/javascript&quot;&gt;\n/* &lt;![CDATA[ */!function(){try{var t=&quot;currentScript&quot;in document?document.currentScript:function(){for(var t=document.getElementsByTagName(&quot;script&quot;),e=t.length;e--;)if(t[e].getAttribute(&quot;cf-hash&quot;))return t[e]}();if(t&amp;&amp;t.previousSibling){var e,r,n,i,c=t.previousSibling,a=c.getAttribute(&quot;data-cfemail&quot;);if(a){for(e=&quot;&quot;,r=parseInt(a.substr(0,2),16),n=2;a.length-n;n+=2)i=parseInt(a.substr(n,2),16)^r,e+=String.fromCharCode(i);e=document.createTextNode(e),c.parentNode.replaceChild(e,c)}}}catch(u){}}();/* ]]&gt; */&lt;/script&gt;\nCodec ID                                 : hev1\nCodec ID/Info                            : High Efficiency Video Coding\nDuration                                 : 1h 16mn\nBit rate                                 : 1 330 Kbps\nWidth                                    : 720 pixels\nHeight                                   : 576 pixels\nDisplay aspect ratio                     : 16:9\nFrame rate mode                          : Constant\nFrame rate                               : 25.000 fps\nStandard                                 : PAL\nColor space                              : YUV\nChroma subsampling                       : 4:2:0\nBit depth                                : 8 bits\nBits/(Pixel*Frame)                       : 0.128\nStream size                              : 730 MiB (94%)\n\nAudio\nID                                       : 2\nFormat                                   : AAC\nFormat/Info                              : Advanced Audio Codec\nFormat profile                           : HE-AAC / LC\nCodec ID                                 : 40\nDuration                                 : 1h 16mn\nBit rate mode                            : Variable\nBit rate                                 : 80.0 Kbps\nChannel(s)                               : 2 channels\nChannel positions                        : Front: L R\nSampling rate                            : 48.0 KHz / 24.0 KHz\nCompression mode                         : Lossy\nStream size                              : 43.9 MiB (6%)\nTitle                                    : Stereo\nLanguage                                 : English\n\n\nIf the video doesn't play, it most likely means that you don't have the codecs to play x265 video or HE-AAC audio. Please download or update your Codecs or use a different media player (MPC HT, VLC).\n\nIf you found this movie to be as bad as I did, seed it so that others can see the horrors produced by &quot;The Artists and Animators as Shrek&quot;. I'm not kidding, that's what the cover says","torrent":{"xt":"urn:btih:75decaf2c3579aaa925abb9762da98b44dcfe240","amp;dn":"The+Way+of+The+Panda%2FThe+Prodigy+%282009%29+DVDRIP","amp;tr":["udp%3A%2F%2Ftracker.openbittorrent.com%3A80","udp%3A%2F%2Fopen.demonii.com%3A1337","udp%3A%2F%2Ftracker.coppersurfer.tk%3A6969","udp%3A%2F%2Fexodus.desync.com%3A6969"],"infoHash":"75decaf2c3579aaa925abb9762da98b44dcfe240","infoHashBuffer":{"type":"Buffer","data":[117,222,202,242,195,87,154,170,146,90,187,151,98,218,152,180,77,207,226,64]},"announce":[],"urlList":[]}}